<svg width="30" height="30" viewBox="0 0 30 30" fill="none" xmlns="http://www.w3.org/2000/svg">
<path d="M28.7672 14.7152C28.7274 14.6238 27.7524 12.4617 25.575 10.2844C23.5547 8.26641 20.0836 5.85938 15 5.85938C9.91642 5.85938 6.44532 8.26641 4.42501 10.2844C2.24767 12.4617 1.27267 14.6203 1.23282 14.7152C1.19276 14.8052 1.17206 14.9027 1.17206 15.0012C1.17206 15.0997 1.19276 15.1971 1.23282 15.2871C1.27267 15.3773 2.24767 17.5395 4.42501 19.7168C6.44532 21.7348 9.91642 24.1406 15 24.1406C20.0836 24.1406 23.5547 21.7348 25.575 19.7168C27.7524 17.5395 28.7274 15.3809 28.7672 15.2871C28.8073 15.1971 28.828 15.0997 28.828 15.0012C28.828 14.9027 28.8073 14.8052 28.7672 14.7152ZM15 22.7344C11.3227 22.7344 8.11173 21.3961 5.45509 18.7582C4.34143 17.6514 3.39904 16.3848 2.659 15C3.39882 13.6155 4.34124 12.3492 5.45509 11.243C8.11173 8.60391 11.3227 7.26562 15 7.26562C18.6774 7.26562 21.8883 8.60391 24.5449 11.243C25.6588 12.3492 26.6012 13.6155 27.341 15C26.5945 16.4309 22.8516 22.7344 15 22.7344ZM15 9.60938C13.9338 9.60938 12.8916 9.92553 12.0051 10.5179C11.1187 11.1102 10.4277 11.9521 10.0197 12.9371C9.61172 13.9221 9.50497 15.006 9.71297 16.0517C9.92097 17.0973 10.4344 18.0579 11.1883 18.8117C11.9422 19.5656 12.9027 20.079 13.9484 20.287C14.994 20.495 16.0779 20.3883 17.0629 19.9803C18.0479 19.5723 18.8898 18.8814 19.4822 17.9949C20.0745 17.1084 20.3906 16.0662 20.3906 15C20.3888 13.5709 19.8202 12.2008 18.8097 11.1903C17.7992 10.1798 16.4291 9.61124 15 9.60938ZM15 18.9844C14.212 18.9844 13.4416 18.7507 12.7864 18.3129C12.1312 17.8751 11.6205 17.2528 11.3189 16.5248C11.0174 15.7967 10.9385 14.9956 11.0922 14.2227C11.2459 13.4498 11.6254 12.7398 12.1826 12.1826C12.7399 11.6254 13.4498 11.2459 14.2227 11.0922C14.9956 10.9384 15.7967 11.0173 16.5248 11.3189C17.2528 11.6205 17.8751 12.1312 18.3129 12.7864C18.7507 13.4416 18.9844 14.212 18.9844 15C18.9844 16.0567 18.5646 17.0702 17.8174 17.8174C17.0702 18.5646 16.0567 18.9844 15 18.9844Z" fill="black"/>
</svg>
