<svg width="30" height="30" viewBox="0 0 30 30" fill="none" xmlns="http://www.w3.org/2000/svg">
<path d="M26.3357 11.5714C27.15 12.3 27.8357 13.0072 28.35 13.5643C28.7054 13.958 28.9021 14.4696 28.9021 15C28.9021 15.5304 28.7054 16.042 28.35 16.4357C26.1 18.8572 20.9786 23.5714 15 23.5714H14.1428M8.29284 21.7072C5.81063 20.317 3.56779 18.5372 1.64998 16.4357C1.29461 16.042 1.0979 15.5304 1.0979 15C1.0979 14.4696 1.29461 13.958 1.64998 13.5643C3.89998 11.1429 9.02141 6.42858 15 6.42858C17.3566 6.47784 19.6631 7.11892 21.7071 8.29287M26.7857 3.21429L3.21427 26.7857" stroke="black" stroke-linecap="round" stroke-linejoin="round"/>
<path d="M11.9786 18.0214C11.1737 17.2214 10.7191 16.1348 10.7143 15C10.7143 13.8634 11.1658 12.7733 11.9696 11.9696C12.7733 11.1658 13.8634 10.7143 15 10.7143C16.1348 10.7191 17.2214 11.1737 18.0214 11.9786M18.7286 17.1429C18.3471 17.7949 17.8001 18.3346 17.1429 18.7072" stroke="black" stroke-linecap="round" stroke-linejoin="round"/>
</svg>
